<svg width="26" height="28" viewBox="0 0 26 28" fill="none" xmlns="http://www.w3.org/2000/svg">
<path d="M25.1532 13.8998C25.0016 11.4445 24.1357 9.08735 22.6623 7.11884C21.1888 5.15034 19.1723 3.65656 16.8611 2.82167C14.55 1.98677 12.0453 1.84726 9.65595 2.42032C7.26657 2.99339 5.09692 4.25399 3.41447 6.0467C1.73202 7.83942 0.610323 10.0859 0.187666 12.5091C-0.234991 14.9324 0.0598672 17.4265 1.03589 19.684C2.01191 21.9416 3.62643 23.8638 5.68041 25.2137C7.73438 26.5636 10.138 27.2823 12.595 27.281H19.9132C21.3025 27.2796 22.6345 26.7264 23.6169 25.7429C24.5993 24.7593 25.1518 23.4257 25.1532 22.0347V13.8998ZM23.0572 22.0347C23.0572 22.8695 22.7259 23.6702 22.1363 24.2605C21.5467 24.8508 20.747 25.1825 19.9132 25.1825H12.595C11.1162 25.1818 9.65415 24.8691 8.30417 24.2647C6.95419 23.6603 5.74661 22.7778 4.76015 21.6748C3.76893 20.5723 3.02459 19.2704 2.57706 17.8563C2.12952 16.4422 1.98913 14.9487 2.1653 13.4759C2.44348 11.1527 3.48598 8.98838 5.12846 7.32397C6.77094 5.65957 8.91998 4.58979 11.2368 4.28329C11.6887 4.22658 12.1437 4.19785 12.5992 4.19725C15.0415 4.19058 17.4083 5.04495 19.2844 6.61055C20.3801 7.5223 21.2795 8.64733 21.928 9.91744C22.5765 11.1875 22.9607 12.5763 23.0572 13.9995V22.0347Z" fill="#2A484E"/>
<path d="M8.3854 11.5417H12.5774C12.8553 11.5417 13.1219 11.4312 13.3185 11.2344C13.515 11.0376 13.6254 10.7707 13.6254 10.4925C13.6254 10.2142 13.515 9.9473 13.3185 9.75053C13.1219 9.55375 12.8553 9.44321 12.5774 9.44321H8.3854C8.10746 9.44321 7.84089 9.55375 7.64435 9.75053C7.44782 9.9473 7.3374 10.2142 7.3374 10.4925C7.3374 10.7707 7.44782 11.0376 7.64435 11.2344C7.84089 11.4312 8.10746 11.5417 8.3854 11.5417Z" fill="#2A484E"/>
<path d="M16.7694 13.6406H8.3854C8.10746 13.6406 7.84089 13.7511 7.64435 13.9479C7.44782 14.1447 7.3374 14.4116 7.3374 14.6899C7.3374 14.9681 7.44782 15.235 7.64435 15.4318C7.84089 15.6286 8.10746 15.7391 8.3854 15.7391H16.7694C17.0473 15.7391 17.3139 15.6286 17.5105 15.4318C17.707 15.235 17.8174 14.9681 17.8174 14.6899C17.8174 14.4116 17.707 14.1447 17.5105 13.9479C17.3139 13.7511 17.0473 13.6406 16.7694 13.6406Z" fill="#2A484E"/>
<path d="M16.7694 17.8375H8.3854C8.10746 17.8375 7.84089 17.948 7.64435 18.1448C7.44782 18.3416 7.3374 18.6084 7.3374 18.8867C7.3374 19.165 7.44782 19.4319 7.64435 19.6287C7.84089 19.8255 8.10746 19.936 8.3854 19.936H16.7694C17.0473 19.936 17.3139 19.8255 17.5105 19.6287C17.707 19.4319 17.8174 19.165 17.8174 18.8867C17.8174 18.6084 17.707 18.3416 17.5105 18.1448C17.3139 17.948 17.0473 17.8375 16.7694 17.8375Z" fill="#2A484E"/>
<rect x="16.2214" y="0.5" width="8.432" height="8.44335" rx="4.216" fill="#F97474" stroke="white"/>
</svg>
