<svg width="16" height="21" viewBox="0 0 16 21" fill="none" xmlns="http://www.w3.org/2000/svg">
<path d="M7.33114 0.891869C3.16771 1.16293 0.0146484 4.8266 0.0146484 9.0149V14.8645C0.0146484 16.316 1.1818 17.4877 2.62768 17.4877H3.49869C4.4568 17.4877 5.24071 16.7007 5.24071 15.7389V12.2414C5.24071 11.2796 4.4568 10.4926 3.49869 10.4926H1.75667V8.99741C1.75667 5.63978 4.33486 2.71933 7.67083 2.62315C11.1287 2.52697 13.9508 5.29877 13.9508 8.74384V10.4926H12.2088C11.2507 10.4926 10.4668 11.2796 10.4668 12.2414V15.7389C10.4668 16.7007 11.2507 17.4877 12.2088 17.4877H13.9508V18.3621H8.72476C8.2457 18.3621 7.85374 18.7555 7.85374 19.2365C7.85374 19.7174 8.2457 20.1108 8.72476 20.1108H13.0798C14.5257 20.1108 15.6928 18.9392 15.6928 17.4877V8.74384C15.6928 4.22327 11.8952 0.594579 7.33114 0.891869V0.891869Z" fill="#323232"/>
</svg>
