<svg width="18" height="15" viewBox="0 0 18 15" fill="none" xmlns="http://www.w3.org/2000/svg">
<path d="M2.11559 7.09279L2.11559 7.0928L9.08955 13.6289L15.8843 7.24877L15.8873 7.24596L15.8873 7.24597C16.2432 6.91448 16.5231 6.52157 16.7131 6.0918C16.903 5.66213 17 5.20266 17 4.73984C17 4.27701 16.903 3.81754 16.7131 3.38788C16.5231 2.95822 16.2434 2.5654 15.8876 2.23397L2.11559 7.09279ZM2.11559 7.09279L2.11354 7.09088M2.11559 7.09279L2.11354 7.09088M2.11354 7.09088C1.7574 6.75897 1.47741 6.3656 1.2873 5.93527C1.09719 5.50495 1 5.04496 1 4.58182C1 4.11868 1.09719 3.6587 1.2873 3.22838C1.47735 2.79818 1.75723 2.40491 2.11322 2.07306C2.84722 1.39015 3.84283 0.999997 4.88922 0.999997C5.93523 0.999997 6.9307 1.38986 7.66457 2.07221C7.66495 2.07257 7.66534 2.07292 7.66572 2.07328L8.40649 2.7673C8.79321 3.12961 9.39542 3.12734 9.77939 2.76211M2.11354 7.09088L9.77939 2.76211M9.77939 2.76211L10.3383 2.23049M9.77939 2.76211L10.3383 2.23049M10.3383 2.23049C11.0719 1.54964 12.0663 1.16069 13.1111 1.16069C14.1575 1.16069 15.1533 1.55086 15.8873 2.23371L10.3383 2.23049Z" fill="#A8D9CD" stroke="#A8D9CD" stroke-width="2" stroke-linecap="round" stroke-linejoin="round"/>
</svg>
