<svg width="17" height="15" viewBox="0 0 17 15" fill="none" xmlns="http://www.w3.org/2000/svg">
<path d="M2.0566 7.11262L2.05661 7.11262L2.0546 7.11064C1.72122 6.78167 1.45598 6.38861 1.27478 5.95431C1.09351 5.51986 1 5.05322 1 4.58182C1 4.11043 1.09351 3.64379 1.27478 3.20934C1.45595 2.77511 1.72112 2.38213 2.05441 2.05319C2.74065 1.37723 3.66073 0.999997 4.61759 0.999997C5.57417 0.999997 6.49416 1.37699 7.18027 2.05245C7.18064 2.05281 7.18101 2.05317 7.18138 2.05353L7.88092 2.74748C8.27288 3.1363 8.90578 3.13391 9.29479 2.74213L9.82256 2.21061C10.5084 1.53674 11.4273 1.16069 12.3827 1.16069C13.3398 1.16069 14.2602 1.53809 14.9465 2.21423C15.2795 2.54272 15.5445 2.93521 15.7256 3.36883C15.9066 3.80264 16 4.26876 16 4.73984C16 5.21091 15.9066 5.67704 15.7256 6.11084C15.5445 6.54459 15.2794 6.93717 14.9462 7.26572L14.9462 7.26571L14.9432 7.26862L8.58451 13.5905L2.0566 7.11262Z" fill="white" stroke="#A8D9CD" stroke-width="2" stroke-linecap="round" stroke-linejoin="round"/>
</svg>
