<svg width="18" height="18" viewBox="0 0 18 18" fill="none" xmlns="http://www.w3.org/2000/svg">
<path d="M15.3254 9.71426C15.3602 9.43445 15.3863 9.15465 15.3863 8.85736C15.3863 8.56007 15.3602 8.28027 15.3254 8.00046L17.1632 6.55773C17.3287 6.42657 17.3722 6.19049 17.2677 5.99812L15.5257 2.97275C15.4473 2.83285 15.2992 2.75416 15.1424 2.75416C15.0902 2.75416 15.0379 2.7629 14.9944 2.78039L12.8256 3.65477C12.3726 3.30502 11.8849 3.01647 11.3535 2.79788L11.0226 0.480759C10.9964 0.270907 10.8135 0.113518 10.5958 0.113518H7.11172C6.89397 0.113518 6.71106 0.270907 6.68493 0.480759L6.35395 2.79788C5.82263 3.01647 5.33486 3.31376 4.88194 3.65477L2.71312 2.78039C2.66086 2.7629 2.6086 2.75416 2.55634 2.75416C2.40827 2.75416 2.2602 2.83285 2.1818 2.97275L0.439783 5.99812C0.326552 6.19049 0.378812 6.42657 0.544304 6.55773L2.38214 8.00046C2.3473 8.28027 2.32117 8.56881 2.32117 8.85736C2.32117 9.14591 2.3473 9.43445 2.38214 9.71426L0.544304 11.157C0.378812 11.2881 0.335262 11.5242 0.439783 11.7166L2.1818 14.742C2.2602 14.8819 2.40827 14.9606 2.56505 14.9606C2.61731 14.9606 2.66957 14.9518 2.71312 14.9343L4.88194 14.0599C5.33486 14.4097 5.82263 14.6982 6.35395 14.9168L6.68493 17.234C6.71106 17.4438 6.89397 17.6012 7.11172 17.6012H10.5958C10.8135 17.6012 10.9964 17.4438 11.0226 17.234L11.3535 14.9168C11.8849 14.6982 12.3726 14.401 12.8256 14.0599L14.9944 14.9343C15.0466 14.9518 15.0989 14.9606 15.1512 14.9606C15.2992 14.9606 15.4473 14.8819 15.5257 14.742L17.2677 11.7166C17.3722 11.5242 17.3287 11.2881 17.1632 11.157L15.3254 9.71426V9.71426ZM13.6008 8.21906C13.6356 8.49012 13.6443 8.67374 13.6443 8.85736C13.6443 9.04098 13.6269 9.23335 13.6008 9.49566L13.4788 10.4837L14.254 11.0958L15.1947 11.8303L14.585 12.8883L13.4788 12.4423L12.573 12.0751L11.7891 12.6697C11.4145 12.9495 11.0574 13.1593 10.7003 13.308L9.77702 13.684L9.63766 14.672L9.46345 15.8524H8.24404L8.07855 14.672L7.93919 13.684L7.01591 13.308C6.64138 13.1506 6.29297 12.9495 5.94457 12.6872L5.15195 12.0751L4.22868 12.4511L3.1225 12.897L2.51279 11.839L3.45348 11.1045L4.22868 10.4925L4.10674 9.5044C4.08061 9.23335 4.06319 9.03224 4.06319 8.85736C4.06319 8.68248 4.08061 8.48138 4.10674 8.21906L4.22868 7.23101L3.45348 6.61894L2.51279 5.88445L3.1225 4.82645L4.22868 5.27239L5.13453 5.63963L5.91844 5.04505C6.29297 4.76524 6.65009 4.55539 7.0072 4.40674L7.93047 4.03076L8.06984 3.04271L8.24404 1.86229H9.45474L9.62024 3.04271L9.7596 4.03076L10.6829 4.40674C11.0574 4.56413 11.4058 4.76524 11.7542 5.02756L12.5468 5.63963L13.4701 5.26364L14.5763 4.81771L15.186 5.87571L14.254 6.61894L13.4788 7.23101L13.6008 8.21906ZM8.85375 5.35982C6.92881 5.35982 5.3697 6.92497 5.3697 8.85736C5.3697 10.7897 6.92881 12.3549 8.85375 12.3549C10.7787 12.3549 12.3378 10.7897 12.3378 8.85736C12.3378 6.92497 10.7787 5.35982 8.85375 5.35982ZM8.85375 10.6061C7.89563 10.6061 7.11172 9.81918 7.11172 8.85736C7.11172 7.89554 7.89563 7.10859 8.85375 7.10859C9.81186 7.10859 10.5958 7.89554 10.5958 8.85736C10.5958 9.81918 9.81186 10.6061 8.85375 10.6061Z" fill="#323232"/>
</svg>
