<svg width="13" height="13" viewBox="0 0 13 13" fill="none" xmlns="http://www.w3.org/2000/svg">
<path d="M6.5 8.66667C7.69662 8.66667 8.66667 7.69662 8.66667 6.5C8.66667 5.30338 7.69662 4.33333 6.5 4.33333C5.30338 4.33333 4.33333 5.30338 4.33333 6.5C4.33333 7.69662 5.30338 8.66667 6.5 8.66667Z" fill="#616668"/>
<path fill-rule="evenodd" clip-rule="evenodd" d="M6.5 0C6.89887 0 7.22222 0.32335 7.22222 0.722222V1.49564C9.43633 1.81235 11.1877 3.56367 11.5044 5.77778H12.2778C12.6767 5.77778 13 6.10113 13 6.5C13 6.89887 12.6767 7.22222 12.2778 7.22222H11.5044C11.1877 9.43633 9.43633 11.1877 7.22222 11.5044V12.2778C7.22222 12.6766 6.89887 13 6.5 13C6.10113 13 5.77778 12.6766 5.77778 12.2778V11.5044C3.56367 11.1877 1.81235 9.43633 1.49564 7.22222H0.722222C0.32335 7.22222 0 6.89887 0 6.5C0 6.10113 0.32335 5.77778 0.722222 5.77778H1.49564C1.81235 3.56367 3.56367 1.81235 5.77778 1.49564V0.722222C5.77778 0.32335 6.10113 0 6.5 0ZM2.88889 6.5C2.88889 4.50564 4.50564 2.88889 6.5 2.88889C8.49436 2.88889 10.1111 4.50564 10.1111 6.5C10.1111 8.49436 8.49436 10.1111 6.5 10.1111C4.50564 10.1111 2.88889 8.49436 2.88889 6.5Z" fill="#616668"/>
</svg>
