<svg width="318" height="62" viewBox="0 0 318 62" fill="none" xmlns="http://www.w3.org/2000/svg">
<g filter="url(#filter0_dd_1_84)">
<rect x="4" y="4" width="310" height="54" rx="27" fill="white"/>
<rect x="4.5" y="4.5" width="309" height="53" rx="26.5" stroke="white"/>
</g>
<path d="M116.411 23.754V39.547H118.689V23.754H116.411ZM110.206 24.859C107.826 24.859 106.075 27.035 106.075 30.469C106.075 33.937 107.826 36.113 110.206 36.113C112.586 36.113 114.337 33.937 114.337 30.469C114.337 27.035 112.586 24.859 110.206 24.859ZM110.206 26.916C111.379 26.916 112.161 28.157 112.161 30.469C112.161 32.815 111.379 34.073 110.206 34.073C109.033 34.073 108.234 32.815 108.234 30.469C108.234 28.157 109.033 26.916 110.206 26.916ZM120.847 25.386V35.586H127.069V25.386H120.847ZM124.961 27.154V33.818H122.955V27.154H124.961ZM131.778 23.771V39.513H133.937V23.771H131.778ZM125.93 29.483V31.302H129.466V29.483H125.93ZM128.565 24.009V38.799H130.69V24.009H128.565ZM139.63 24.23C137.233 24.23 135.431 25.726 135.431 27.834C135.431 29.925 137.233 31.421 139.63 31.421C142.027 31.421 143.829 29.925 143.829 27.834C143.829 25.726 142.027 24.23 139.63 24.23ZM139.63 26.066C140.786 26.066 141.636 26.712 141.636 27.834C141.636 28.956 140.786 29.602 139.63 29.602C138.474 29.602 137.607 28.956 137.607 27.834C137.607 26.712 138.474 26.066 139.63 26.066ZM146.005 23.771V31.642H148.283V23.771H146.005ZM137.777 32.288V34.039H146.039V34.974H137.811V38.51H140.021V36.606H148.283V32.288H137.777ZM137.811 37.592V39.343H148.674V37.592H137.811ZM150.084 36.13V37.592H164.16V36.13H150.084ZM156.204 32.968V36.725H157.972V32.968H156.204ZM151.733 24.961V26.389H160.709V28.463H151.767V32.764H153.535V29.874H162.477V24.961H151.733ZM151.767 32.033V33.478H162.834V32.033H151.767ZM171.785 25.148V27.698C171.785 30.673 170.187 33.665 167.705 34.787L168.776 36.266C171.564 34.906 173.247 31.455 173.247 27.698V25.148H171.785ZM172.125 25.148V27.698C172.125 31.319 173.808 34.634 176.545 35.926L177.599 34.498C175.151 33.41 173.57 30.554 173.57 27.698V25.148H172.125ZM178.84 23.856V39.428H180.625V23.856H178.84ZM186.285 25.471V26.593C186.285 28.701 184.925 30.707 182.477 31.54L183.412 32.917C186.166 31.982 187.747 29.483 187.747 26.593V25.471H186.285ZM186.625 25.471V26.593C186.625 29.313 188.138 31.71 190.858 32.628L191.759 31.234C189.379 30.452 188.07 28.548 188.07 26.593V25.471H186.625ZM182.987 24.876V26.321H191.334V24.876H182.987ZM192.966 23.873V33.223H194.751V23.873H192.966ZM194.258 27.817V29.296H196.944V27.817H194.258ZM184.534 33.988V35.433H192.966V39.411H194.751V33.988H184.534ZM207.687 23.873V39.411H209.455V23.873H207.687ZM209.047 30.112V31.591H211.869V30.112H209.047ZM197.334 26.27V27.698H206.446V26.27H197.334ZM201.941 28.82C199.714 28.82 198.082 30.316 198.082 32.441C198.082 34.583 199.714 36.079 201.941 36.079C204.151 36.079 205.783 34.583 205.783 32.441C205.783 30.316 204.151 28.82 201.941 28.82ZM201.941 30.282C203.182 30.282 204.083 31.132 204.083 32.441C204.083 33.75 203.182 34.617 201.941 34.617C200.683 34.617 199.782 33.75 199.782 32.441C199.782 31.132 200.683 30.282 201.941 30.282ZM201.023 24.094V26.865H202.808V24.094H201.023ZM223.24 23.873V39.411H225.025V23.873H223.24ZM218.684 25.522V25.828C218.684 29.976 216.797 33.053 212.326 35.212L213.261 36.64C218.599 34.039 220.435 30.129 220.435 25.522H218.684ZM213.091 25.522V26.95H219.483V25.522H213.091Z" fill="#2E2E2E"/>
<defs>
<filter id="filter0_dd_1_84" x="0" y="0" width="318" height="62" filterUnits="userSpaceOnUse" color-interpolation-filters="sRGB">
<feFlood flood-opacity="0" result="BackgroundImageFix"/>
<feColorMatrix in="SourceAlpha" type="matrix" values="0 0 0 0 0 0 0 0 0 0 0 0 0 0 0 0 0 0 127 0" result="hardAlpha"/>
<feOffset dy="1"/>
<feGaussianBlur stdDeviation="1.5"/>
<feComposite in2="hardAlpha" operator="out"/>
<feColorMatrix type="matrix" values="0 0 0 0 0 0 0 0 0 0 0 0 0 0 0 0 0 0 0.168 0"/>
<feBlend mode="normal" in2="BackgroundImageFix" result="effect1_dropShadow_1_84"/>
<feColorMatrix in="SourceAlpha" type="matrix" values="0 0 0 0 0 0 0 0 0 0 0 0 0 0 0 0 0 0 127 0" result="hardAlpha"/>
<feOffset/>
<feGaussianBlur stdDeviation="2"/>
<feComposite in2="hardAlpha" operator="out"/>
<feColorMatrix type="matrix" values="0 0 0 0 0 0 0 0 0 0 0 0 0 0 0 0 0 0 0.098 0"/>
<feBlend mode="normal" in2="effect1_dropShadow_1_84" result="effect2_dropShadow_1_84"/>
<feBlend mode="normal" in="SourceGraphic" in2="effect2_dropShadow_1_84" result="shape"/>
</filter>
</defs>
</svg>
