<svg width="15" height="15" viewBox="0 0 15 15" fill="none" xmlns="http://www.w3.org/2000/svg">
<g clip-path="url(#clip0_1_302)">
<rect width="15" height="15" fill="white"/>
<g style="mix-blend-mode:multiply">
<path d="M7.50012 3.75C7.00567 3.75 6.52232 3.89662 6.1112 4.17133C5.70008 4.44603 5.37964 4.83648 5.19042 5.29329C5.00121 5.75011 4.9517 6.25277 5.04816 6.73773C5.14462 7.22268 5.38273 7.66814 5.73236 8.01777C6.08199 8.3674 6.52745 8.6055 7.0124 8.70196C7.49735 8.79843 8.00002 8.74892 8.45683 8.5597C8.91365 8.37048 9.30409 8.05005 9.5788 7.63893C9.8535 7.2278 10.0001 6.74445 10.0001 6.25C10.0001 5.58696 9.73673 4.95107 9.26789 4.48223C8.79905 4.01339 8.16316 3.75 7.50012 3.75ZM7.50012 7.5C7.2529 7.5 7.01122 7.42669 6.80566 7.28934C6.6001 7.15199 6.43988 6.95676 6.34527 6.72835C6.25066 6.49995 6.22591 6.24861 6.27414 6.00614C6.32237 5.76366 6.44142 5.54093 6.61624 5.36612C6.79106 5.1913 7.01378 5.07225 7.25626 5.02402C7.49874 4.97579 7.75007 5.00054 7.97848 5.09515C8.20689 5.18976 8.40211 5.34998 8.53946 5.55554C8.67681 5.7611 8.75012 6.00277 8.75012 6.25C8.75012 6.58152 8.61843 6.89946 8.38401 7.13388C8.14959 7.3683 7.83164 7.5 7.50012 7.5Z" fill="#A8D9CD"/>
</g>
<path d="M7.49995 15.0002C6.97367 15.0029 6.4544 14.8794 5.98562 14.6402C5.51684 14.401 5.1122 14.0529 4.80558 13.6252C2.4237 10.3395 1.21558 7.86955 1.21558 6.2833C1.21558 4.61658 1.87768 3.01812 3.05623 1.83958C4.23478 0.661026 5.83323 -0.00107574 7.49995 -0.00107574C9.16667 -0.00107574 10.7651 0.661026 11.9437 1.83958C13.1222 3.01812 13.7843 4.61658 13.7843 6.2833C13.7843 7.86955 12.5762 10.3395 10.1943 13.6252C9.8877 14.0529 9.48306 14.401 9.01429 14.6402C8.54551 14.8794 8.02624 15.0029 7.49995 15.0002V15.0002ZM7.49995 1.3633C6.19521 1.36479 4.94434 1.88375 4.02175 2.80634C3.09916 3.72894 2.58019 4.97981 2.5787 6.28455C2.5787 7.5408 3.76183 9.86392 5.90933 12.8258C6.09164 13.0769 6.33081 13.2813 6.60727 13.4222C6.88374 13.5631 7.18964 13.6366 7.49995 13.6366C7.81026 13.6366 8.11617 13.5631 8.39263 13.4222C8.6691 13.2813 8.90827 13.0769 9.09058 12.8258C11.2381 9.86392 12.4212 7.5408 12.4212 6.28455C12.4197 4.97981 11.9007 3.72894 10.9782 2.80634C10.0556 1.88375 8.80469 1.36479 7.49995 1.3633V1.3633Z" fill="#A8D9CD"/>
</g>
<defs>
<clipPath id="clip0_1_302">
<rect width="15" height="15" fill="white"/>
</clipPath>
</defs>
</svg>
