<svg width="16" height="15" viewBox="0 0 16 15" fill="none" xmlns="http://www.w3.org/2000/svg">
<path d="M8 14.9933C7.484 14.5169 6.9008 14.0213 6.284 13.4941H6.276C4.10401 11.645 1.64241 9.55276 0.555217 7.0457C0.198032 6.24754 0.00874142 5.37915 9.12476e-06 4.49866C-0.0023763 3.29051 0.463034 2.13234 1.29106 1.28592C2.11909 0.439505 3.23984 -0.0237223 4.40001 0.000936424C5.34451 0.00248964 6.26867 0.286693 7.0624 0.819688C7.41118 1.05538 7.72674 1.34047 8 1.66676C8.27479 1.34175 8.59044 1.05682 8.9384 0.819688C9.73178 0.286587 10.6557 0.00236782 11.6 0.000936424C12.7602 -0.0237223 13.8809 0.439505 14.7089 1.28592C15.537 2.13234 16.0024 3.29051 16 4.49866C15.9918 5.38056 15.8025 6.25043 15.4448 7.04986C14.3576 9.55693 11.8968 11.6484 9.7248 13.4941L9.7168 13.5008C9.0992 14.0247 8.5168 14.5202 8.0008 15L8 14.9933ZM4.40001 1.66676C3.65482 1.65705 2.93607 1.95398 2.40001 2.49301C1.88352 3.02121 1.59486 3.74491 1.59995 4.49866C1.60908 5.14042 1.74868 5.77289 2.00961 6.35438C2.52282 7.43609 3.2153 8.41505 4.05521 9.24625C4.84801 10.0792 5.76 10.8854 6.5488 11.5634C6.7672 11.7508 6.9896 11.9399 7.212 12.129L7.352 12.2481C7.5656 12.4296 7.7864 12.6179 8 12.8028L8.0104 12.7928L8.0152 12.7886H8.02L8.0272 12.7828H8.0312H8.0352L8.0496 12.7703L8.0824 12.7428L8.088 12.7378L8.0968 12.7312H8.1016L8.1088 12.7245L8.64 12.2706L8.7792 12.1514C9.004 11.9607 9.2264 11.7716 9.4448 11.5842C10.2336 10.9062 11.1464 10.1008 11.9392 9.26374C12.7792 8.43296 13.4717 7.45425 13.9848 6.37271C14.2504 5.78617 14.392 5.14708 14.4 4.49866C14.4033 3.74724 14.1148 3.02631 13.6 2.49967C13.065 1.95821 12.3461 1.65883 11.6 1.66676C10.6895 1.6587 9.81915 2.05604 9.208 2.75871L8 4.20797L6.792 2.75871C6.18085 2.05604 5.31047 1.6587 4.40001 1.66676Z" fill="#A8D9CD"/>
</svg>
